<svg width="24" height="20" viewBox="0 0 24 20" fill="none" xmlns="http://www.w3.org/2000/svg">
<path d="M17.6912 11.9651L15.3727 10.5391L15.8046 10.3465L17.9189 11.6047L23.0686 11.251L23.213 11.5749L17.6912 11.9651Z" fill="#FAB042" stroke="#F58634" stroke-width="0.236469"/>
<circle cx="15.3362" cy="10.1669" r="0.591173" transform="rotate(-24.025 15.3362 10.1669)" fill="#F58634"/>
<rect x="4.7047" y="6.24295" width="14.9819" height="7.81662" rx="0.542821" transform="rotate(-24.025 4.7047 6.24295)" fill="#007965" stroke="#F58634" stroke-width="0.217128"/>
<path d="M2.99001 14.2578C0.999709 10.0085 0.410298 8.83004 0.36438 8.77197L5.5932 8.50289L6.66652 10.9108L2.99001 14.2578Z" fill="#007965"/>
<path fill-rule="evenodd" clip-rule="evenodd" d="M0.275979 8.57366L5.74261 8.3614L5.75104 8.57837L0.284403 8.79063L0.275979 8.57366Z" fill="#F58634"/>
<path fill-rule="evenodd" clip-rule="evenodd" d="M2.83964 14.3248L6.59459 10.7493L6.74432 10.9065L2.98937 14.4821L2.83964 14.3248Z" fill="#F58634"/>
<path fill-rule="evenodd" clip-rule="evenodd" d="M2.83961 14.325L0.176831 8.61793L0.373596 8.52612L3.03637 14.2331L2.83961 14.325Z" fill="#F58634"/>
<path d="M19.2813 5.94909L13.8817 8.35596" stroke="#F58634" stroke-width="0.236469"/>
</svg>
