<svg width="259" height="60" viewBox="0 0 259 60" fill="none" xmlns="http://www.w3.org/2000/svg">
<path d="M38.3037 59H0.0654297V4.38477H10.9961V48.0693H38.3037V59ZM55.1758 7.12695C55.1758 8.0918 54.9854 8.99316 54.6045 9.83105C54.249 10.6689 53.7539 11.4053 53.1191 12.04C52.4844 12.6494 51.7354 13.1445 50.8721 13.5254C50.0342 13.8809 49.1328 14.0586 48.168 14.0586C47.2031 14.0586 46.2891 13.8809 45.4258 13.5254C44.5879 13.1445 43.8516 12.6494 43.2168 12.04C42.6074 11.4053 42.1123 10.6689 41.7314 9.83105C41.376 8.99316 41.1982 8.0918 41.1982 7.12695C41.1982 6.1875 41.376 5.29883 41.7314 4.46094C42.1123 3.59766 42.6074 2.86133 43.2168 2.25195C43.8516 1.61719 44.5879 1.12207 45.4258 0.766602C46.2891 0.385742 47.2031 0.195312 48.168 0.195312C49.1328 0.195312 50.0342 0.385742 50.8721 0.766602C51.7354 1.12207 52.4844 1.61719 53.1191 2.25195C53.7539 2.86133 54.249 3.59766 54.6045 4.46094C54.9854 5.29883 55.1758 6.1875 55.1758 7.12695ZM53.3857 59H42.9121V18.21H53.3857V59ZM72.9238 59L57.3848 18.21H69.2295L78.1416 43.6514L87.0156 18.21H98.8984L83.3594 59H72.9238ZM117.865 49.0215C118.271 49.1484 118.678 49.2373 119.084 49.2881C119.49 49.3135 119.896 49.3262 120.303 49.3262C121.318 49.3262 122.296 49.1865 123.235 48.9072C124.175 48.6279 125.051 48.2344 125.863 47.7266C126.701 47.1934 127.438 46.5586 128.072 45.8223C128.732 45.0605 129.266 44.2227 129.672 43.3086L137.289 50.9639C136.324 52.335 135.207 53.5664 133.938 54.6582C132.693 55.75 131.335 56.6768 129.862 57.4385C128.415 58.2002 126.879 58.7715 125.254 59.1523C123.654 59.5586 122.004 59.7617 120.303 59.7617C117.434 59.7617 114.729 59.2285 112.19 58.1621C109.677 57.0957 107.468 55.6104 105.563 53.7061C103.685 51.8018 102.199 49.542 101.107 46.9268C100.016 44.2861 99.4697 41.3916 99.4697 38.2432C99.4697 35.0186 100.016 32.0732 101.107 29.4072C102.199 26.7412 103.685 24.4688 105.563 22.5898C107.468 20.7109 109.677 19.251 112.19 18.21C114.729 17.1689 117.434 16.6484 120.303 16.6484C122.004 16.6484 123.667 16.8516 125.292 17.2578C126.917 17.6641 128.453 18.248 129.9 19.0098C131.373 19.7715 132.744 20.7109 134.014 21.8281C135.283 22.9199 136.4 24.1514 137.365 25.5225L117.865 49.0215ZM123.197 27.5791C122.715 27.4014 122.232 27.2871 121.75 27.2363C121.293 27.1855 120.811 27.1602 120.303 27.1602C118.881 27.1602 117.535 27.4268 116.266 27.96C115.021 28.4678 113.93 29.2041 112.99 30.1689C112.076 31.1338 111.353 32.3018 110.819 33.6729C110.286 35.0186 110.02 36.542 110.02 38.2432C110.02 38.624 110.032 39.0557 110.058 39.5381C110.108 40.0205 110.172 40.5156 110.248 41.0234C110.35 41.5059 110.464 41.9756 110.591 42.4326C110.718 42.8896 110.883 43.2959 111.086 43.6514L123.197 27.5791ZM181.964 59H143.726V4.38477H154.656V48.0693H181.964V59ZM224.925 38.2432C224.925 41.29 224.379 44.1338 223.287 46.7744C222.195 49.3896 220.71 51.6621 218.831 53.5918C216.952 55.4961 214.743 57.0068 212.204 58.124C209.69 59.2158 206.986 59.7617 204.092 59.7617C201.223 59.7617 198.519 59.2158 195.979 58.124C193.466 57.0068 191.257 55.4961 189.353 53.5918C187.474 51.6621 185.988 49.3896 184.896 46.7744C183.805 44.1338 183.259 41.29 183.259 38.2432C183.259 35.1455 183.805 32.2764 184.896 29.6357C185.988 26.9951 187.474 24.7227 189.353 22.8184C191.257 20.8887 193.466 19.3779 195.979 18.2861C198.519 17.1943 201.223 16.6484 204.092 16.6484C206.986 16.6484 209.69 17.1689 212.204 18.21C214.743 19.2256 216.952 20.6855 218.831 22.5898C220.71 24.4688 222.195 26.7412 223.287 29.4072C224.379 32.0479 224.925 34.9932 224.925 38.2432ZM214.451 38.2432C214.451 36.5674 214.172 35.0566 213.613 33.7109C213.08 32.3398 212.344 31.1719 211.404 30.207C210.465 29.2168 209.36 28.4678 208.091 27.96C206.847 27.4268 205.514 27.1602 204.092 27.1602C202.67 27.1602 201.324 27.4268 200.055 27.96C198.811 28.4678 197.719 29.2168 196.779 30.207C195.865 31.1719 195.142 32.3398 194.608 33.7109C194.075 35.0566 193.809 36.5674 193.809 38.2432C193.809 39.8174 194.075 41.2773 194.608 42.623C195.142 43.9688 195.865 45.1367 196.779 46.127C197.719 47.1172 198.811 47.9043 200.055 48.4883C201.324 49.0469 202.67 49.3262 204.092 49.3262C205.514 49.3262 206.847 49.0596 208.091 48.5264C209.36 47.9932 210.465 47.2441 211.404 46.2793C212.344 45.3145 213.08 44.1465 213.613 42.7754C214.172 41.4043 214.451 39.8936 214.451 38.2432ZM250.823 59C248.31 59 245.948 58.5303 243.739 57.5908C241.53 56.626 239.588 55.3184 237.912 53.668C236.262 51.9922 234.954 50.0498 233.989 47.8408C233.05 45.6318 232.58 43.2705 232.58 40.7568V28.6455H227.515V18.2861H232.58V1.98535H242.939V18.2861H258.707V28.6455H242.939V40.7568C242.939 41.8486 243.143 42.877 243.549 43.8418C243.955 44.7812 244.514 45.6064 245.225 46.3174C245.936 47.0283 246.773 47.5996 247.738 48.0312C248.703 48.4375 249.731 48.6406 250.823 48.6406H258.707V59H250.823Z" fill="#F58634"/>
</svg>
